#!OML:ASF E:\motion texture\Top Level 1\Subject 1\Session 1\male.ASF
:FULLY-SPECIFIED
:DEGREES
176
root 40.7846 17.5355 5.55478 116.641 -81.9618 -103.606
lowerback 0.0180262 1.27413 8.41215
upperback 1.02844 1.395 5.46141
thorax 1.1349 0.656702 0.950312
lowerneck -6.255 -10.522 -9.40222
upperneck 16.7116 -15.9072 12.1904
head 7.91772 -7.41365 3.93621
rclavicle -1.19271e-015 -2.38542e-014
rhumerus -23.3486 -6.13552 -76.2435
rradius 25.3332
rwrist 12.0056
rhand -12.09 -24.1524
rfingers 7.12502
rthumb 13.9702 -53.663
lclavicle -1.19271e-015 -2.38542e-014
lhumerus -36.5734 24.4224 77.8117
lradius 21.8063
lwrist -36.7938
lhand -11.1884 17.1759
lfingers 7.12502
lthumb 14.839 46.6246
rfemur -1.8756 1.24786 30.7066
rtibia 17.8409
rfoot -15.1027 -6.61445
rtoes -1.06161
lfemur -36.4892 -1.02175 -5.5991
ltibia 16.1166
lfoot -4.41431 9.83266
ltoes -12.5668
177
root 40.6793 17.5298 5.57657 117.128 -81.9528 -104.074
lowerback 0.0619018 1.2601 8.33272
upperback 1.0724 1.37703 5.48917
thorax 1.15226 0.647716 1.02215
lowerneck -6.16494 -10.6056 -9.48729
upperneck 17.0315 -16.1126 12.3203
head 8.05024 -7.50624 3.967
rclavicle -1.59028e-015 -3.65764e-014
rhumerus -23.3083 -6.02885 -76.2459
rradius 25.449
rwrist 12.0275
rhand -12.1563 -24.1368
rfingers 7.12502
rthumb 13.9064 -53.6518
lclavicle -1.59028e-015 -3.65764e-014
lhumerus -36.6218 24.6419 77.6518
lradius 21.733
lwrist -36.9455
lhand -11.1884 17.1629
lfingers 7.12502
lthumb 14.839 46.6116
rfemur -1.93764 1.12765 30.523
rtibia 18.501
rfoot -14.9543 -6.42133
rtoes -1.8296
lfemur -36.3961 -1.1288 -5.69357
ltibia 16.1095
lfoot -4.21842 9.71613
ltoes -12.0833
178
root 40.5722 17.5247 5.59908 117.614 -81.9554 -104.549
lowerback 0.0901411 1.24612 8.2543
upperback 1.13336 1.35587 5.5078
thorax 1.19625 0.63831 1.08458
lowerneck -6.09258 -10.6921 -9.56738
upperneck 17.3498 -16.3244 12.4557
head 8.1874 -7.60015 3.99692
rclavicle 3.18055e-015 1.43125e-014
rhumerus -23.2454 -5.94809 -76.2514
rradius 25.5567
rwrist 12.0672
rhand -12.2288 -24.1191
rfingers 7.12502
rthumb 13.8365 -53.6388
lclavicle 3.18055e-015 1.43125e-014
lhumerus -36.6211 24.8257 77.5226
lradius 21.67
lwrist -37.0753
lhand -11.1885 17.1478
lfingers 7.12502
lthumb 14.8389 46.5965
rfemur -2.02662 1.00614 30.3193
rtibia 19.2189
rfoot -14.76 -6.22615
rtoes -2.58873
lfemur -36.2885 -1.21923 -5.82252
ltibia 16.1528
lfoot -4.02306 9.56434
ltoes -11.5515
179
root 40.4632 17.5203 5.62231 118.102 -81.9713 -105.034
lowerback 0.119889 1.22842 8.1627
upperback 1.19352 1.33027 5.52641
thorax 1.23807 0.626484 1.15415
lowerneck -6.01025 -10.7762 -9.65571
upperneck 17.6716 -16.535 12.5881
head 8.32535 -7.69449 4.02785
rclavicle -1.31198e-014 -1.11319e-014
rhumerus -23.1887 -5.86533 -76.2497
rradius 25.66
rwrist 12.1195
rhand -12.309 -24.0983
rfingers 7.12502
rthumb 13.7592 -53.6233
lclavicle -1.31198e-014 -1.11319e-014
lhumerus -36.6105 24.9756 77.4208
lradius 21.6255
lwrist -37.1771
lhand -11.1881 17.1341
lfingers 7.12502
lthumb 14.8393 46.5827
rfemur -2.14504 0.881973 30.0935
rtibia 19.997
rfoot -14.5156 -6.03206
rtoes -3.32184
lfemur -36.1663 -1.29636 -5.98651
ltibia 16.2396
lfoot -3.82479 9.37999
ltoes -11.0135
180
root 40.3525 17.5166 5.6462 118.586 -82.0002 -105.524
lowerback 0.159317 1.20755 8.06097
upperback 1.2525 1.30201 5.54375
thorax 1.27292 0.613027 1.22772
lowerneck -5.93323 -10.86 -9.74535
upperneck 18.0033 -16.7468 12.7107
head 8.46816 -7.78955 4.05521
rclavicle -1.35174e-014 -9.85972e-014
rhumerus -23.1366 -5.78783 -76.2408
rradius 25.7574
rwrist 12.1858
rhand -12.3967 -24.0763
rfingers 7.12502
rthumb 13.6747 -53.607
lclavicle -1.35174e-014 -9.85972e-014
lhumerus -36.585 25.0842 77.3495
lradius 21.5989
lwrist -37.249
lhand -11.1864 17.1208
lfingers 7.12502
lthumb 14.8409 46.5693
rfemur -2.29213 0.755232 29.8469
rtibia 20.8337
rfoot -14.2149 -5.84393
rtoes -4.02198
lfemur -36.0267 -1.35993 -6.18474
ltibia 16.3661
lfoot -3.62578 9.1638
ltoes -10.4514
181
root 40.2402 17.5136 5.67071 119.08 -82.0418 -106.034
lowerback 0.197724 1.18551 7.95192
upperback 1.31569 1.27195 5.55717
thorax 1.31263 0.598825 1.30137
lowerneck -5.86047 -10.9439 -9.83551
upperneck 18.3385 -16.9605 12.8303
head 8.61417 -7.88535 4.0811
rclavicle -7.95139e-015 -6.67916e-014
rhumerus -23.0803 -5.72464 -76.2272
rradius 25.8456
rwrist 12.2731
rhand -12.4916 -24.054
rfingers 7.12502
rthumb 13.5833 -53.5908
lclavicle -7.95139e-015 -6.67916e-014
lhumerus -36.5325 25.1516 77.3092
lradius 21.5877
lwrist -37.2939
lhand -11.1816 17.1109
lfingers 7.12502
lthumb 14.8455 46.5591
rfemur -2.47099 0.628085 29.5802
rtibia 21.7309
rfoot -13.8598 -5.67033
rtoes -4.6905
lfemur -35.8691 -1.41188 -6.41449
ltibia 16.5256
lfoot -3.42857 8.92051
ltoes -9.86748
182
root 40.1265 17.5114 5.69594 119.614 -82.0947 -106.59
lowerback 0.23078 1.16233 7.83586
upperback 1.38288 1.23961 5.56703
thorax 1.35943 0.583659 1.37536
lowerneck -5.78342 -11.0251 -9.92842
upperneck 18.6734 -17.1722 12.9471
head 8.76034 -7.98066 4.10698
rclavicle -7.95139e-016 -1.27222e-014
rhumerus -23.0203 -5.67105 -76.2096
rradius 25.9235
rwrist 12.3822
rhand -12.596 -24.0295
rfingers 7.12502
rthumb 13.4826 -53.5731
lclavicle -7.95139e-016 -1.27222e-014
lhumerus -36.4562 25.1798 77.2988
lradius 21.5925
lwrist -37.3122
lhand -11.1784 17.0984
lfingers 7.12502
lthumb 14.8486 46.5464
rfemur -2.6868 0.501504 29.2923
rtibia 22.6932
rfoot -13.4541 -5.51135
rtoes -5.34164
lfemur -35.6932 -1.4535 -6.6737
ltibia 16.7147
lfoot -3.23672 8.65581
ltoes -9.26647
183
root 40.0113 17.5099 5.7217 120.153 -82.1597 -107.161
lowerback 0.266633 1.13661 7.71144
upperback 1.45097 1.20431 5.57556
thorax 1.40539 0.566868 1.45256
lowerneck -5.70885 -11.1045 -10.0236
upperneck 19.0135 -17.3826 13.0564
head 8.90937 -8.07572 4.13075
rclavicle 1.51076e-014 5.40694e-014
rhumerus -22.9594 -5.62537 -76.1857
rradius 25.9913
rwrist 12.5138
rhand -12.7095 -24.0093
rfingers 7.12502
rthumb 13.3733 -53.5601
lclavicle 1.51076e-014 5.40694e-014
lhumerus -36.3605 25.1665 77.3197
lradius 21.6159
lwrist -37.3058
lhand -11.173 17.0893
lfingers 7.12502
lthumb 14.8539 46.5368
rfemur -2.93765 0.375926 28.9869
rtibia 23.7177
rfoot -13.005 -5.37244
rtoes -5.97051
lfemur -35.4974 -1.48724 -6.96039
ltibia 16.9268
lfoot -3.05036 8.36908
ltoes -8.66232
184
root 39.8948 17.5092 5.74791 120.711 -82.2365 -107.758
lowerback 0.305803 1.10862 7.57703
upperback 1.51827 1.16666 5.58328
thorax 1.4485 0.548643 1.53435
lowerneck -5.63523 -11.1813 -10.1216
upperneck 19.3589 -17.5906 13.1583
head 9.06095 -8.1701 4.1527
rclavicle -1.59028e-015 -2.70347e-014
rhumerus -22.899 -5.58584 -76.1549
rradius 26.0473
rwrist 12.6709
rhand -12.8351 -23.9908
rfingers 7.12502
rthumb 13.2521 -53.5495
lclavicle -1.59028e-015 -2.70347e-014
lhumerus -36.2486 25.1126 77.3698
lradius 21.6567
lwrist -37.2811
lhand -11.1738 17.0772
lfingers 7.12502
lthumb 14.8531 46.5248
rfemur -3.22584 0.25155 28.6646
rtibia 24.8037
rfoot -12.513 -5.25884
rtoes -6.54869
lfemur -35.2816 -1.51311 -7.27272
ltibia 17.1581
lfoot -2.87558 8.06306
ltoes -8.0425
185
root 39.777 17.5093 5.77456 121.287 -82.3255 -108.383
lowerback 0.348773 1.07924 7.43472
upperback 1.58607 1.12776 5.58871
thorax 1.48995 0.529626 1.61812
lowerneck -5.56393 -11.2572 -10.2198
upperneck 19.7071 -17.798 13.2524
head 9.21449 -8.26453 4.17199
rclavicle 3.97569e-015 3.33958e-014
rhumerus -22.8374 -5.55473 -76.1185
rradius 26.0921
rwrist 12.8575
rhand -12.9772 -23.9741
rfingers 7.12502
rthumb 13.1152 -53.5417
lclavicle 3.97569e-015 3.33958e-014
lhumerus -36.115 25.0135 77.4512
lradius 21.7154
lwrist -37.2369
lhand -11.1752 17.0669
lfingers 7.12502
lthumb 14.8517 46.5146
rfemur -3.55108 0.126186 28.3248
rtibia 25.9486
rfoot -11.9771 -5.1722
rtoes -7.06633
lfemur -35.0434 -1.53262 -7.61044
ltibia 17.4029
lfoot -2.71334 7.73989
ltoes -7.41396
186
root 39.6581 17.5102 5.80157 121.874 -82.4257 -109.028
lowerback 0.394184 1.04824 7.28538
upperback 1.65446 1.08706 5.59268
thorax 1.53062 0.509538 1.70426
lowerneck -5.49749 -11.3315 -10.3167
upperneck 20.0582 -18.0035 13.3367
head 9.36999 -8.35829 4.18772
rclavicle 1.15295e-014 2.38542e-014
rhumerus -22.7719 -5.53295 -76.0764
rradius 26.1217
rwrist 13.0766
rhand -13.1373 -23.9531
rfingers 7.12502
rthumb 12.9609 -53.5305
lclavicle 1.15295e-014 2.38542e-014
lhumerus -35.9591 24.8707 77.5635
lradius 21.791
lwrist -37.1786
lhand -11.1784 17.0602
lfingers 7.12502
lthumb 14.8486 46.5082
rfemur -3.9146 -0.0019261 27.9697
rtibia 27.1498
rfoot -11.3997 -5.11388
rtoes -7.51962
lfemur -34.7827 -1.54651 -7.97043
ltibia 17.6553
lfoot -2.56434 7.40234
ltoes -6.78051
